# xmcd CD database file
#
# Track frame offsets:
#	150
#	32582
#	61174
#	84396
#	109354
#	157079
#	186269
#	210181
#	261362
#	281341
#
# Disc length: 4019 seconds
#
# Revision: 0
# Processed by: cddbd v1.5PL3 Copyright (c) Steve Scherf et al.
# Submitted via: CDex 1.51
#
DISCID=850fb10a
DTITLE=Ayuo/Ohta Hiromi - Red Moon
DYEAR=2004
DGENRE=Jazz
TTITLE0=Moon and Water
TTITLE1=Dreaming Away
TTITLE2=Takeda Lullaby
TTITLE3=Spring Dream
TTITLE4=One Step Further
TTITLE5=Devotion
TTITLE6=A Serenade-An Illusion
TTITLE7=A Painting of You and I
TTITLE8=Grasses in the Garden
TTITLE9=Beyond the Night
EXTD=YEAR: 2004
EXTT0=
EXTT1=
EXTT2=
EXTT3=
EXTT4=
EXTT5=
EXTT6=
EXTT7=
EXTT8=
EXTT9=
PLAYORDER=
